<svg width="512" height="512" viewBox="0 0 512 512" fill="none" xmlns="http://www.w3.org/2000/svg">
<path d="M95.7369 173.141L57.4411 180.233C56.7485 180.361 56.402 181.146 56.774 181.745L81.1263 220.899C81.3503 221.259 81.7769 221.439 82.1909 221.348L114.285 214.268C114.909 214.13 115.246 213.451 114.977 212.871L96.8263 173.704C96.6343 173.29 96.186 173.058 95.7369 173.141Z" fill="url(#paint0_linear_804_247)"/>
<path d="M215.941 122.084L174.742 91.4239C174.159 90.9905 173.324 91.3025 173.168 92.0115L163.653 135.306C163.561 135.721 163.743 136.149 164.106 136.372L203.887 160.816C204.448 161.161 205.183 160.878 205.37 160.247L216.303 123.169C216.421 122.767 216.277 122.334 215.941 122.084Z" fill="url(#paint1_linear_804_247)"/>
<path d="M295.114 112.599L332.203 88.3483C332.811 87.9507 333.626 88.3138 333.738 89.0318L341.401 138.364C341.461 138.751 341.29 139.138 340.962 139.353L309.142 160.25C308.576 160.621 307.813 160.336 307.63 159.685L294.699 113.706C294.58 113.286 294.749 112.837 295.114 112.599Z" fill="url(#paint2_linear_804_247)"/>
<path d="M417.262 173.609L457.009 179.287C457.717 179.388 458.093 180.178 457.725 180.791L433.353 221.412C433.14 221.766 432.731 221.953 432.324 221.882L399.741 216.216C399.106 216.105 398.74 215.433 398.991 214.841L416.2 174.209C416.377 173.791 416.813 173.545 417.262 173.609Z" fill="url(#paint3_linear_804_247)"/>
<path d="M214.999 184C212.999 129.5 241.165 92.5 255.499 81C295.098 117.4 295.499 165 296.999 184C299.799 236.8 270.499 276.667 255.499 290C215.898 247.6 214.5 202 214.999 184Z" fill="url(#paint4_linear_804_247)"/>
<path d="M47 250C81.4 227.6 113 224.667 124.5 226C156.9 268.8 211.5 291 241 293C147.5 344.5 69.6667 284.667 47 250Z" fill="url(#paint5_linear_804_247)"/>
<path d="M464 250.854C429.6 228.454 398 225.521 386.5 226.854C354.1 269.654 299.5 291.854 270 293.854C363.5 345.354 441.333 285.521 464 250.854Z" fill="url(#paint6_linear_804_247)"/>
<path d="M190.5 163.5C156.5 136.7 119 133.333 104.5 135C102.9 168.6 118.833 198.667 127 209.5C170.2 269.1 216 280.667 233.5 279C212.3 250.6 206 217.5 205.5 204.5C206.7 180.5 196 167.167 190.5 163.5Z" fill="url(#paint7_linear_804_247)"/>
<path d="M320.5 164.355C354.5 137.555 392 134.188 406.5 135.855C408.1 169.455 392.167 199.521 384 210.354C340.8 269.954 295 281.521 277.5 279.854C298.7 251.454 305 218.354 305.5 205.354C304.3 181.354 315 168.021 320.5 164.355Z" fill="url(#paint8_linear_804_247)"/>
<path d="M115.375 415.176C107.708 415.176 102.167 413.092 98.75 408.926C95.3333 404.759 93.625 398.092 93.625 388.926V320.176H106.875V388.301C106.875 391.801 107.208 394.655 107.875 396.863C108.542 399.072 109.833 400.697 111.75 401.738C113.708 402.78 116.583 403.301 120.375 403.301C123.833 403.301 128.25 402.509 133.625 400.926L135.125 412.551C131.75 413.467 128.5 414.134 125.375 414.551C122.292 414.967 118.958 415.176 115.375 415.176ZM74.125 331.051V320.176H94.75V331.051H74.125ZM180.5 415.176C171.333 415.176 164.208 412.176 159.125 406.176C154.042 400.176 151.5 391.717 151.5 380.801C151.5 369.842 154.042 361.384 159.125 355.426C164.208 349.426 171.333 346.426 180.5 346.426C189.708 346.426 196.833 349.426 201.875 355.426C206.958 361.384 209.5 369.842 209.5 380.801C209.5 391.717 206.958 400.176 201.875 406.176C196.833 412.176 189.708 415.176 180.5 415.176ZM180.5 403.301C185.375 403.301 189.125 401.342 191.75 397.426C194.417 393.509 195.75 387.967 195.75 380.801C195.75 373.592 194.417 368.051 191.75 364.176C189.125 360.259 185.375 358.301 180.5 358.301C175.625 358.301 171.854 360.259 169.188 364.176C166.562 368.051 165.25 373.592 165.25 380.801C165.25 387.967 166.562 393.509 169.188 397.426C171.854 401.342 175.625 403.301 180.5 403.301ZM267.5 415.176C257.458 415.176 250.188 413.092 245.688 408.926C241.229 404.759 239 398.092 239 388.926V377.676H252.25V388.301C252.25 393.551 253.521 397.363 256.062 399.738C258.646 402.113 262.875 403.301 268.75 403.301C270.833 403.301 273.042 403.197 275.375 402.988C277.708 402.738 280.375 402.426 283.375 402.051L284.875 413.676C281.958 414.176 279.104 414.551 276.312 414.801C273.562 415.051 270.625 415.176 267.5 415.176ZM239 382.676V327.676H252.25V382.676H239ZM222.375 358.551V347.676H282.375V358.551H222.375ZM324 415.176C317.042 415.176 311.646 413.113 307.812 408.988C304.021 404.822 302.125 398.967 302.125 391.426V347.676H315.375V391.426C315.375 395.217 316.458 398.155 318.625 400.238C320.792 402.28 323.833 403.301 327.75 403.301C332.583 403.301 336.229 401.78 338.688 398.738C341.146 395.655 342.375 390.509 342.375 383.301L345.75 401.176H341.375C340.333 405.676 338.292 409.134 335.25 411.551C332.208 413.967 328.458 415.176 324 415.176ZM343.5 414.551L342.375 398.676V387.051H355.625V401.926L364.75 403.301V413.926L343.5 414.551ZM342.375 395.176V347.676H355.625V391.426L342.375 395.176ZM400.375 415.176C395.375 415.176 391.083 415.03 387.5 414.738C383.958 414.447 380.708 413.967 377.75 413.301L379.25 401.301C383.625 401.967 387.479 402.467 390.812 402.801C394.188 403.134 397.375 403.301 400.375 403.301C407.083 403.301 411.938 402.655 414.938 401.363C417.979 400.03 419.5 397.926 419.5 395.051C419.5 393.051 418.958 391.572 417.875 390.613C416.833 389.613 415.208 388.842 413 388.301L397.75 384.426C391.208 382.759 386.396 380.697 383.312 378.238C380.271 375.78 378.75 372.051 378.75 367.051C378.75 359.801 381.521 354.551 387.062 351.301C392.646 348.051 401.625 346.426 414 346.426C417.208 346.426 420.188 346.53 422.938 346.738C425.729 346.905 428.583 347.217 431.5 347.676L430.125 359.176C426.75 358.842 423.771 358.613 421.188 358.488C418.604 358.363 416.083 358.301 413.625 358.301C406.208 358.301 400.833 358.947 397.5 360.238C394.167 361.488 392.5 363.551 392.5 366.426C392.5 368.342 393.188 369.738 394.562 370.613C395.938 371.447 398.042 372.217 400.875 372.926L413.125 375.926C420.083 377.592 425.167 379.822 428.375 382.613C431.625 385.405 433.25 389.467 433.25 394.801C433.25 401.926 430.646 407.113 425.438 410.363C420.229 413.572 411.875 415.176 400.375 415.176Z" fill="#657075"/>
<defs>
<linearGradient id="paint0_linear_804_247" x1="56" y1="172.5" x2="116" y2="221.5" gradientUnits="userSpaceOnUse">
<stop stop-color="#0D9C60"/>
<stop offset="1" stop-color="#0D9C9C"/>
</linearGradient>
<linearGradient id="paint1_linear_804_247" x1="169" y1="105" x2="229" y2="154" gradientUnits="userSpaceOnUse">
<stop stop-color="#0D9C60"/>
<stop offset="1" stop-color="#0D9C9C"/>
</linearGradient>
<linearGradient id="paint2_linear_804_247" x1="338.5" y1="89" x2="278.5" y2="138" gradientUnits="userSpaceOnUse">
<stop stop-color="#0D9C60"/>
<stop offset="1" stop-color="#0D9C9C"/>
</linearGradient>
<linearGradient id="paint3_linear_804_247" x1="447" y1="143" x2="387" y2="192" gradientUnits="userSpaceOnUse">
<stop stop-color="#0D9C60"/>
<stop offset="1" stop-color="#0D9C9C"/>
</linearGradient>
<linearGradient id="paint4_linear_804_247" x1="214.207" y1="80.4508" x2="314.538" y2="88.7346" gradientUnits="userSpaceOnUse">
<stop stop-color="#D24DB4"/>
<stop offset="1" stop-color="#CF3FAF"/>
</linearGradient>
<linearGradient id="paint5_linear_804_247" x1="47" y1="225.5" x2="240" y2="313.5" gradientUnits="userSpaceOnUse">
<stop stop-color="#D24DB4"/>
<stop offset="1" stop-color="#CF3FAF"/>
</linearGradient>
<linearGradient id="paint6_linear_804_247" x1="464" y1="226.354" x2="271" y2="314.354" gradientUnits="userSpaceOnUse">
<stop stop-color="#D24DB4"/>
<stop offset="1" stop-color="#CF3FAF"/>
</linearGradient>
<linearGradient id="paint7_linear_804_247" x1="104.388" y1="134.266" x2="255.581" y2="162.213" gradientUnits="userSpaceOnUse">
<stop stop-color="#D24DB4"/>
<stop offset="1" stop-color="#CF3FAF"/>
</linearGradient>
<linearGradient id="paint8_linear_804_247" x1="406.612" y1="135.12" x2="255.419" y2="163.067" gradientUnits="userSpaceOnUse">
<stop stop-color="#D24DB4"/>
<stop offset="1" stop-color="#CF3FAF"/>
</linearGradient>
</defs>
</svg>
